<mxfile host="app.diagrams.net" modified="2023-11-30T07:18:58.204Z" agent="Mozilla/5.0 (Windows NT 10.0; Win64; x64) AppleWebKit/537.36 (KHTML, like Gecko) Chrome/119.0.0.0 Safari/537.36" etag="sjB5bKluw2VbmwwoL0fm" version="22.1.5" type="github">
  <diagram name="페이지-1" id="pE4cqzJZ1XsMd7-XdrDE">
    <mxGraphModel dx="989" dy="523" grid="1" gridSize="10" guides="1" tooltips="1" connect="1" arrows="1" fold="1" page="1" pageScale="1" pageWidth="827" pageHeight="1169" math="0" shadow="0">
      <root>
        <mxCell id="0" />
        <mxCell id="1" parent="0" />
        <mxCell id="KthDiFychYCuL5yXd9ih-1" style="edgeStyle=orthogonalEdgeStyle;rounded=0;orthogonalLoop=1;jettySize=auto;html=1;exitX=1;exitY=0.5;exitDx=0;exitDy=0;entryX=0;entryY=0.5;entryDx=0;entryDy=0;endArrow=none;endFill=0;" edge="1" parent="1" source="KthDiFychYCuL5yXd9ih-2" target="KthDiFychYCuL5yXd9ih-5">
          <mxGeometry relative="1" as="geometry" />
        </mxCell>
        <mxCell id="KthDiFychYCuL5yXd9ih-2" value="Shop" style="html=1;whiteSpace=wrap;" vertex="1" parent="1">
          <mxGeometry x="110" y="330" width="110" height="50" as="geometry" />
        </mxCell>
        <mxCell id="KthDiFychYCuL5yXd9ih-3" style="edgeStyle=orthogonalEdgeStyle;rounded=0;orthogonalLoop=1;jettySize=auto;html=1;exitX=0.5;exitY=1;exitDx=0;exitDy=0;entryX=0.5;entryY=0;entryDx=0;entryDy=0;endArrow=none;endFill=0;" edge="1" parent="1" source="KthDiFychYCuL5yXd9ih-5" target="KthDiFychYCuL5yXd9ih-7">
          <mxGeometry relative="1" as="geometry" />
        </mxCell>
        <mxCell id="KthDiFychYCuL5yXd9ih-4" value="" style="edgeStyle=orthogonalEdgeStyle;rounded=0;orthogonalLoop=1;jettySize=auto;html=1;endArrow=none;endFill=0;" edge="1" parent="1" source="KthDiFychYCuL5yXd9ih-5" target="KthDiFychYCuL5yXd9ih-8">
          <mxGeometry relative="1" as="geometry" />
        </mxCell>
        <mxCell id="KthDiFychYCuL5yXd9ih-5" value="Inventory" style="html=1;whiteSpace=wrap;" vertex="1" parent="1">
          <mxGeometry x="350" y="330" width="110" height="50" as="geometry" />
        </mxCell>
        <mxCell id="KthDiFychYCuL5yXd9ih-6" style="edgeStyle=orthogonalEdgeStyle;rounded=0;orthogonalLoop=1;jettySize=auto;html=1;exitX=1;exitY=0.5;exitDx=0;exitDy=0;entryX=0.5;entryY=1;entryDx=0;entryDy=0;endArrow=none;endFill=0;" edge="1" parent="1" source="KthDiFychYCuL5yXd9ih-7" target="KthDiFychYCuL5yXd9ih-8">
          <mxGeometry relative="1" as="geometry" />
        </mxCell>
        <mxCell id="KthDiFychYCuL5yXd9ih-7" value="Product" style="html=1;whiteSpace=wrap;" vertex="1" parent="1">
          <mxGeometry x="350" y="490" width="110" height="50" as="geometry" />
        </mxCell>
        <mxCell id="KthDiFychYCuL5yXd9ih-8" value="Stock" style="html=1;whiteSpace=wrap;" vertex="1" parent="1">
          <mxGeometry x="534" y="330" width="110" height="50" as="geometry" />
        </mxCell>
        <mxCell id="KthDiFychYCuL5yXd9ih-12" style="edgeStyle=orthogonalEdgeStyle;rounded=0;orthogonalLoop=1;jettySize=auto;html=1;exitX=1;exitY=0.5;exitDx=0;exitDy=0;entryX=0;entryY=0.5;entryDx=0;entryDy=0;endArrow=none;endFill=0;" edge="1" parent="1" source="KthDiFychYCuL5yXd9ih-13" target="KthDiFychYCuL5yXd9ih-16">
          <mxGeometry relative="1" as="geometry" />
        </mxCell>
        <mxCell id="KthDiFychYCuL5yXd9ih-13" value="TimeSimulator" style="html=1;whiteSpace=wrap;" vertex="1" parent="1">
          <mxGeometry x="130" y="170" width="110" height="50" as="geometry" />
        </mxCell>
        <mxCell id="KthDiFychYCuL5yXd9ih-14" style="edgeStyle=orthogonalEdgeStyle;rounded=0;orthogonalLoop=1;jettySize=auto;html=1;exitX=0.5;exitY=1;exitDx=0;exitDy=0;entryX=0.5;entryY=0;entryDx=0;entryDy=0;endArrow=none;endFill=0;" edge="1" parent="1" source="KthDiFychYCuL5yXd9ih-16" target="KthDiFychYCuL5yXd9ih-5">
          <mxGeometry relative="1" as="geometry" />
        </mxCell>
        <mxCell id="KthDiFychYCuL5yXd9ih-15" style="edgeStyle=orthogonalEdgeStyle;rounded=0;orthogonalLoop=1;jettySize=auto;html=1;exitX=1;exitY=0.5;exitDx=0;exitDy=0;entryX=0.5;entryY=0;entryDx=0;entryDy=0;endArrow=none;endFill=0;" edge="1" parent="1" source="KthDiFychYCuL5yXd9ih-16" target="KthDiFychYCuL5yXd9ih-8">
          <mxGeometry relative="1" as="geometry" />
        </mxCell>
        <mxCell id="KthDiFychYCuL5yXd9ih-16" value="DecayingChecker" style="html=1;whiteSpace=wrap;" vertex="1" parent="1">
          <mxGeometry x="342" y="170" width="126" height="50" as="geometry" />
        </mxCell>
      </root>
    </mxGraphModel>
  </diagram>
</mxfile>
